<svg width="2003" height="1237" xmlns="http://www.w3.org/2000/svg" xmlns:xlink="http://www.w3.org/1999/xlink" overflow="hidden"><defs><clipPath id="clip0"><rect x="981" y="1993" width="2003" height="1237"/></clipPath><clipPath id="clip1"><rect x="982" y="1993" width="2000" height="1234"/></clipPath><clipPath id="clip2"><rect x="1355" y="2163" width="1538" height="864"/></clipPath><clipPath id="clip3"><rect x="982" y="1993" width="2000" height="1234"/></clipPath><clipPath id="clip4"><rect x="982" y="1993" width="2000" height="1234"/></clipPath><clipPath id="clip5"><rect x="982" y="1993" width="2000" height="1234"/></clipPath><clipPath id="clip6"><rect x="982" y="1993" width="2000" height="1234"/></clipPath><clipPath id="clip7"><rect x="982" y="1993" width="2000" height="1234"/></clipPath><clipPath id="clip8"><rect x="982" y="1993" width="2000" height="1234"/></clipPath><clipPath id="clip9"><rect x="982" y="1993" width="2000" height="1234"/></clipPath><clipPath id="clip10"><rect x="982" y="1993" width="2000" height="1234"/></clipPath><clipPath id="clip11"><rect x="982" y="1993" width="2000" height="1234"/></clipPath><clipPath id="clip12"><rect x="982" y="1993" width="2000" height="1234"/></clipPath><clipPath id="clip13"><rect x="982" y="1993" width="2000" height="1234"/></clipPath><clipPath id="clip14"><rect x="982" y="1993" width="2000" height="1234"/></clipPath><clipPath id="clip15"><rect x="982" y="1993" width="2000" height="1234"/></clipPath><clipPath id="clip16"><rect x="982" y="1993" width="2000" height="1234"/></clipPath><clipPath id="clip17"><rect x="982" y="1993" width="2000" height="1234"/></clipPath><clipPath id="clip18"><rect x="982" y="1993" width="2000" height="1234"/></clipPath><clipPath id="clip19"><rect x="982" y="1993" width="2000" height="1234"/></clipPath><clipPath id="clip20"><rect x="982" y="1993" width="2000" height="1234"/></clipPath><clipPath id="clip21"><rect x="982" y="1993" width="2000" height="1234"/></clipPath><clipPath id="clip22"><rect x="982" y="1993" width="2000" height="1234"/></clipPath><clipPath id="clip23"><rect x="982" y="1993" width="2000" height="1234"/></clipPath><clipPath id="clip24"><rect x="982" y="1993" width="2000" height="1234"/></clipPath><clipPath id="clip25"><rect x="982" y="1993" width="2000" height="1234"/></clipPath><clipPath id="clip26"><rect x="982" y="1993" width="2000" height="1234"/></clipPath><clipPath id="clip27"><rect x="982" y="1993" width="2000" height="1234"/></clipPath><clipPath id="clip28"><rect x="982" y="1993" width="2000" height="1234"/></clipPath><clipPath id="clip29"><rect x="982" y="1993" width="2000" height="1234"/></clipPath><clipPath id="clip30"><rect x="982" y="1993" width="2000" height="1234"/></clipPath><clipPath id="clip31"><rect x="982" y="1993" width="2000" height="1234"/></clipPath><clipPath id="clip32"><rect x="982" y="1993" width="2000" height="1234"/></clipPath><clipPath id="clip33"><rect x="982" y="1993" width="2000" height="1234"/></clipPath><clipPath id="clip34"><rect x="982" y="1993" width="2000" height="1234"/></clipPath></defs><g clip-path="url(#clip0)" transform="translate(-981 -1993)"><rect x="982" y="1994" width="2000" height="1234" fill="#FFFFFF"/><g clip-path="url(#clip1)"><path d="M1547.55 2163.5 1547.55 3024.5M1738.56 2163.5 1738.56 3024.5M1930.56 2163.5 1930.56 3024.5M2122.57 2163.5 2122.57 3024.5M2314.58 2163.5 2314.58 3024.5M2506.58 2163.5 2506.58 3024.5M2698.59 2163.5 2698.59 3024.5M2890.5 2163.5 2890.5 3024.5" stroke="#D9D9D9" stroke-width="3.4375" stroke-linejoin="round" stroke-miterlimit="10" fill="none"/></g><g clip-path="url(#clip2)"><path d="M2690.09 2996.1 1355 2996.1 1355 2966.1 2690.09 2966.1ZM1835.06 2910.1 1355 2910.1 1355 2880.09 1835.06 2880.09ZM1388.05 2824.09 1355 2824.09 1355 2794.09 1388.05 2794.09ZM1693.06 2738.09 1355 2738.09 1355 2708.09 1693.06 2708.09ZM1660.05 2652.09 1355 2652.09 1355 2622.09 1660.05 2622.09ZM1559.05 2566.08 1355 2566.08 1355 2536.08 1559.05 2536.08ZM1382.05 2480.08 1355 2480.08 1355 2450.08 1382.05 2450.08ZM1489.05 2394.08 1355 2394.08 1355 2364.08 1489.05 2364.08ZM1464.05 2308.08 1355 2308.08 1355 2277.07 1464.05 2277.07ZM1370.05 2222.07 1355 2222.07 1355 2191.07 1370.05 2191.07Z" fill="#4472C4"/></g><g clip-path="url(#clip3)"><path d="M0 0 0.000360892 861" stroke="#D9D9D9" stroke-width="3.4375" stroke-linejoin="round" stroke-miterlimit="10" fill="none" fill-rule="evenodd" transform="matrix(1 0 0 -1 1355.5 3024.5)"/></g><g clip-path="url(#clip4)"><text fill="#404040" font-family="Calibri,Calibri_MSFontService,sans-serif" font-weight="400" font-size="41" transform="matrix(1 0 0 1 2717.99 2995)">6960</text></g><g clip-path="url(#clip5)"><text fill="#404040" font-family="Calibri,Calibri_MSFontService,sans-serif" font-weight="400" font-size="41" transform="matrix(1 0 0 1 1862.35 2909)">2500</text></g><g clip-path="url(#clip6)"><text fill="#404040" font-family="Calibri,Calibri_MSFontService,sans-serif" font-weight="400" font-size="41" transform="matrix(1 0 0 1 1415.91 2823)">173</text></g><g clip-path="url(#clip7)"><text fill="#404040" font-family="Calibri,Calibri_MSFontService,sans-serif" font-weight="400" font-size="41" transform="matrix(1 0 0 1 1720.38 2737)">1760</text></g><g clip-path="url(#clip8)"><text fill="#404040" font-family="Calibri,Calibri_MSFontService,sans-serif" font-weight="400" font-size="41" transform="matrix(1 0 0 1 1687.76 2651)">1590</text></g><g clip-path="url(#clip9)"><text fill="#404040" font-family="Calibri,Calibri_MSFontService,sans-serif" font-weight="400" font-size="41" transform="matrix(1 0 0 1 1586.08 2565)">1060</text></g><g clip-path="url(#clip10)"><text fill="#404040" font-family="Calibri,Calibri_MSFontService,sans-serif" font-weight="400" font-size="41" transform="matrix(1 0 0 1 1409.77 2479)">141</text></g><g clip-path="url(#clip11)"><text fill="#404040" font-family="Calibri,Calibri_MSFontService,sans-serif" font-weight="400" font-size="41" transform="matrix(1 0 0 1 1516.44 2393)">697</text></g><g clip-path="url(#clip12)"><text fill="#404040" font-family="Calibri,Calibri_MSFontService,sans-serif" font-weight="400" font-size="41" transform="matrix(1 0 0 1 1491.69 2307)">568</text></g><g clip-path="url(#clip13)"><text fill="#404040" font-family="Calibri,Calibri_MSFontService,sans-serif" font-weight="400" font-size="41" transform="matrix(1 0 0 1 1397.11 2221)">75</text></g><g clip-path="url(#clip14)"><text fill="#595959" font-family="Calibri,Calibri_MSFontService,sans-serif" font-weight="400" font-size="41" transform="matrix(1 0 0 1 1344.77 3089)">0</text></g><g clip-path="url(#clip15)"><text fill="#595959" font-family="Calibri,Calibri_MSFontService,sans-serif" font-weight="400" font-size="41" transform="matrix(1 0 0 1 1505.27 3089)">1000</text></g><g clip-path="url(#clip16)"><text fill="#595959" font-family="Calibri,Calibri_MSFontService,sans-serif" font-weight="400" font-size="41" transform="matrix(1 0 0 1 1697.12 3089)">2000</text></g><g clip-path="url(#clip17)"><text fill="#595959" font-family="Calibri,Calibri_MSFontService,sans-serif" font-weight="400" font-size="41" transform="matrix(1 0 0 1 1888.97 3089)">3000</text></g><g clip-path="url(#clip18)"><text fill="#595959" font-family="Calibri,Calibri_MSFontService,sans-serif" font-weight="400" font-size="41" transform="matrix(1 0 0 1 2080.82 3089)">4000</text></g><g clip-path="url(#clip19)"><text fill="#595959" font-family="Calibri,Calibri_MSFontService,sans-serif" font-weight="400" font-size="41" transform="matrix(1 0 0 1 2272.67 3089)">5000</text></g><g clip-path="url(#clip20)"><text fill="#595959" font-family="Calibri,Calibri_MSFontService,sans-serif" font-weight="400" font-size="41" transform="matrix(1 0 0 1 2464.52 3089)">6000</text></g><g clip-path="url(#clip21)"><text fill="#595959" font-family="Calibri,Calibri_MSFontService,sans-serif" font-weight="400" font-size="41" transform="matrix(1 0 0 1 2656.37 3089)">7000</text></g><g clip-path="url(#clip22)"><text fill="#595959" font-family="Calibri,Calibri_MSFontService,sans-serif" font-weight="400" font-size="41" transform="matrix(1 0 0 1 2848.21 3089)">8000</text></g><g clip-path="url(#clip23)"><text fill="#595959" font-family="Calibri,Calibri_MSFontService,sans-serif" font-weight="400" font-size="41" transform="matrix(1 0 0 1 1198.98 2993)">English</text></g><g clip-path="url(#clip24)"><text fill="#595959" font-family="Calibri,Calibri_MSFontService,sans-serif" font-weight="400" font-size="41" transform="matrix(1 0 0 1 1011.93 2907)">Mandarin Chinese</text></g><g clip-path="url(#clip25)"><text fill="#595959" font-family="Calibri,Calibri_MSFontService,sans-serif" font-weight="400" font-size="41" transform="matrix(1 0 0 1 1228.98 2821)">Hindi</text></g><g clip-path="url(#clip26)"><text fill="#595959" font-family="Calibri,Calibri_MSFontService,sans-serif" font-weight="400" font-size="41" transform="matrix(1 0 0 1 1187.61 2735)">Spanish</text></g><g clip-path="url(#clip27)"><text fill="#595959" font-family="Calibri,Calibri_MSFontService,sans-serif" font-weight="400" font-size="41" transform="matrix(1 0 0 1 1202.28 2649)">French</text></g><g clip-path="url(#clip28)"><text fill="#595959" font-family="Calibri,Calibri_MSFontService,sans-serif" font-weight="400" font-size="41" transform="matrix(1 0 0 1 1065.72 2563)">Modern Arabic</text></g><g clip-path="url(#clip29)"><text fill="#595959" font-family="Calibri,Calibri_MSFontService,sans-serif" font-weight="400" font-size="41" transform="matrix(1 0 0 1 1194.21 2476)">Bengali</text></g><g clip-path="url(#clip30)"><text fill="#595959" font-family="Calibri,Calibri_MSFontService,sans-serif" font-weight="400" font-size="41" transform="matrix(1 0 0 1 1147.4 2390)">Portugese</text></g><g clip-path="url(#clip31)"><text fill="#595959" font-family="Calibri,Calibri_MSFontService,sans-serif" font-weight="400" font-size="41" transform="matrix(1 0 0 1 1189.72 2304)">Russian</text></g><g clip-path="url(#clip32)"><text fill="#595959" font-family="Calibri,Calibri_MSFontService,sans-serif" font-weight="400" font-size="41" transform="matrix(1 0 0 1 1232.74 2218)">Urdu</text></g><g clip-path="url(#clip33)"><text fill="#595959" font-family="Calibri,Calibri_MSFontService,sans-serif" font-weight="400" font-size="46" transform="matrix(1 0 0 1 1937.52 3159)">Speakers in Millions</text></g><g clip-path="url(#clip34)"><text fill="#595959" font-family="Calibri,Calibri_MSFontService,sans-serif" font-weight="400" font-size="64" transform="matrix(1 0 0 1 1686.28 2089)">Google Scholar Results</text></g><rect x="982.5" y="1994.5" width="2000" height="1234" stroke="#D9D9D9" stroke-width="3.4375" stroke-linejoin="round" stroke-miterlimit="10" fill="none"/></g></svg>