<svg width="1983" height="993" xmlns="http://www.w3.org/2000/svg" xmlns:xlink="http://www.w3.org/1999/xlink" overflow="hidden"><defs><clipPath id="clip0"><rect x="500" y="1079" width="1983" height="993"/></clipPath><clipPath id="clip1"><rect x="500" y="1080" width="1980" height="990"/></clipPath><clipPath id="clip2"><rect x="900" y="1235" width="1497" height="732"/></clipPath><clipPath id="clip3"><rect x="900" y="1235" width="1497" height="732"/></clipPath><clipPath id="clip4"><rect x="900" y="1235" width="1497" height="732"/></clipPath><clipPath id="clip5"><rect x="900" y="1235" width="1497" height="732"/></clipPath><clipPath id="clip6"><rect x="500" y="1080" width="1980" height="990"/></clipPath><clipPath id="clip7"><rect x="500" y="1080" width="1980" height="990"/></clipPath><clipPath id="clip8"><rect x="500" y="1080" width="1980" height="990"/></clipPath><clipPath id="clip9"><rect x="500" y="1080" width="1980" height="990"/></clipPath><clipPath id="clip10"><rect x="500" y="1080" width="1980" height="990"/></clipPath><clipPath id="clip11"><rect x="500" y="1080" width="1980" height="990"/></clipPath><clipPath id="clip12"><rect x="500" y="1080" width="1980" height="990"/></clipPath><clipPath id="clip13"><rect x="500" y="1080" width="1980" height="990"/></clipPath><clipPath id="clip14"><rect x="500" y="1080" width="1980" height="990"/></clipPath><clipPath id="clip15"><rect x="500" y="1080" width="1980" height="990"/></clipPath><clipPath id="clip16"><rect x="500" y="1080" width="1980" height="990"/></clipPath><clipPath id="clip17"><rect x="500" y="1080" width="1980" height="990"/></clipPath><clipPath id="clip18"><rect x="500" y="1080" width="1980" height="990"/></clipPath><clipPath id="clip19"><rect x="500" y="1080" width="1980" height="990"/></clipPath><clipPath id="clip20"><rect x="500" y="1080" width="1980" height="990"/></clipPath><clipPath id="clip21"><rect x="500" y="1080" width="1980" height="990"/></clipPath><clipPath id="clip22"><rect x="500" y="1080" width="1980" height="990"/></clipPath><clipPath id="clip23"><rect x="500" y="1080" width="1980" height="990"/></clipPath><clipPath id="clip24"><rect x="500" y="1080" width="1980" height="990"/></clipPath><clipPath id="clip25"><rect x="500" y="1080" width="1980" height="990"/></clipPath><clipPath id="clip26"><rect x="500" y="1080" width="1980" height="990"/></clipPath><clipPath id="clip27"><rect x="500" y="1080" width="1980" height="990"/></clipPath><clipPath id="clip28"><rect x="500" y="1080" width="1980" height="990"/></clipPath><clipPath id="clip29"><rect x="500" y="1080" width="1980" height="990"/></clipPath><clipPath id="clip30"><rect x="500" y="1080" width="1980" height="990"/></clipPath><clipPath id="clip31"><rect x="500" y="1080" width="1980" height="990"/></clipPath><clipPath id="clip32"><rect x="500" y="1080" width="1980" height="990"/></clipPath><clipPath id="clip33"><rect x="500" y="1080" width="1980" height="990"/></clipPath><clipPath id="clip34"><rect x="500" y="1080" width="1980" height="990"/></clipPath></defs><g clip-path="url(#clip0)" transform="translate(-500 -1079)"><rect x="501" y="1080" width="1980" height="990" fill="#FFFFFF"/><g clip-path="url(#clip1)"><path d="M1149.54 1235.5 1149.54 1964.5M1398.55 1235.5 1398.55 1964.5M1647.55 1235.5 1647.55 1964.5M1896.56 1235.5 1896.56 1964.5M2145.57 1235.5 2145.57 1964.5M2393.5 1235.5 2393.5 1964.5" stroke="#D9D9D9" stroke-width="3.4375" stroke-linejoin="round" stroke-miterlimit="10" fill="none"/></g><g clip-path="url(#clip2)"><rect x="900.5" y="1902.5" width="80.9998" height="49.9999" stroke="#000000" stroke-width="3.4375" stroke-linejoin="round" stroke-miterlimit="10" fill="#C55A11"/></g><g clip-path="url(#clip3)"><rect x="900.5" y="1684.5" width="129" height="49.0001" stroke="#000000" stroke-width="3.4375" stroke-linejoin="round" stroke-miterlimit="10" fill="#C55A11"/></g><g clip-path="url(#clip4)"><rect x="900.5" y="1392.5" width="70.9998" height="49.9999" stroke="#000000" stroke-width="3.4375" stroke-linejoin="round" stroke-miterlimit="10" fill="#C55A11"/></g><g clip-path="url(#clip5)"><path d="M1455.55 1879.56 900.5 1879.56 900.5 1829.56 1455.55 1829.56ZM1557.55 1806.56 900.5 1806.56 900.5 1756.56 1557.55 1756.56ZM1863.56 1660.55 900.5 1660.55 900.5 1611.55 1863.56 1611.55ZM2177.57 1587.55 900.5 1587.55 900.5 1538.55 2177.57 1538.55ZM1684.56 1515.55 900.5 1515.55 900.5 1465.55 1684.56 1465.55ZM1447.55 1369.55 900.5 1369.55 900.5 1319.54 1447.55 1319.54ZM2090.57 1296.54 900.5 1296.54 900.5 1246.54 2090.57 1246.54Z" stroke="#000000" stroke-width="3.4375" stroke-linejoin="round" stroke-miterlimit="10" fill="#7F7F7F"/></g><g clip-path="url(#clip6)"><path d="M0 0 0.000360892 729" stroke="#D9D9D9" stroke-width="3.4375" stroke-linejoin="round" stroke-miterlimit="10" fill="none" fill-rule="evenodd" transform="matrix(1 0 0 -1 900.5 1964.5)"/></g><g clip-path="url(#clip7)"><text fill="#404040" font-family="Calibri,Calibri_MSFontService,sans-serif" font-weight="400" font-size="41" transform="matrix(1 0 0 1 1008.85 1941)">0.32</text></g><g clip-path="url(#clip8)"><text fill="#404040" font-family="Calibri,Calibri_MSFontService,sans-serif" font-weight="400" font-size="41" transform="matrix(1 0 0 1 1482.68 1869)">2.23</text></g><g clip-path="url(#clip9)"><text fill="#404040" font-family="Calibri,Calibri_MSFontService,sans-serif" font-weight="400" font-size="41" transform="matrix(1 0 0 1 1585.37 1796)">2.64</text></g><g clip-path="url(#clip10)"><text fill="#404040" font-family="Calibri,Calibri_MSFontService,sans-serif" font-weight="400" font-size="41" transform="matrix(1 0 0 1 1056.92 1723)">0.52</text></g><g clip-path="url(#clip11)"><text fill="#404040" font-family="Calibri,Calibri_MSFontService,sans-serif" font-weight="400" font-size="41" transform="matrix(1 0 0 1 1891.06 1650)">3.87</text></g><g clip-path="url(#clip12)"><text fill="#404040" font-family="Calibri,Calibri_MSFontService,sans-serif" font-weight="400" font-size="41" transform="matrix(1 0 0 1 2204.7 1577)">5.13</text></g><g clip-path="url(#clip13)"><text fill="#404040" font-family="Calibri,Calibri_MSFontService,sans-serif" font-weight="400" font-size="41" transform="matrix(1 0 0 1 1711.86 1504)">3.15</text></g><g clip-path="url(#clip14)"><text fill="#404040" font-family="Calibri,Calibri_MSFontService,sans-serif" font-weight="400" font-size="41" transform="matrix(1 0 0 1 998.977 1431)">0.28</text></g><g clip-path="url(#clip15)"><text fill="#404040" font-family="Calibri,Calibri_MSFontService,sans-serif" font-weight="400" font-size="41" transform="matrix(1 0 0 1 1475.06 1358)">2.20</text></g><g clip-path="url(#clip16)"><text fill="#404040" font-family="Calibri,Calibri_MSFontService,sans-serif" font-weight="400" font-size="41" transform="matrix(1 0 0 1 2117.9 1286)">4.78</text></g><g clip-path="url(#clip17)"><text fill="#595959" font-family="Calibri,Calibri_MSFontService,sans-serif" font-weight="400" font-size="41" transform="matrix(1 0 0 1 864.353 2029)">0.00</text></g><g clip-path="url(#clip18)"><text fill="#595959" font-family="Calibri,Calibri_MSFontService,sans-serif" font-weight="400" font-size="41" transform="matrix(1 0 0 1 1113.19 2029)">1.00</text></g><g clip-path="url(#clip19)"><text fill="#595959" font-family="Calibri,Calibri_MSFontService,sans-serif" font-weight="400" font-size="41" transform="matrix(1 0 0 1 1362.03 2029)">2.00</text></g><g clip-path="url(#clip20)"><text fill="#595959" font-family="Calibri,Calibri_MSFontService,sans-serif" font-weight="400" font-size="41" transform="matrix(1 0 0 1 1610.86 2029)">3.00</text></g><g clip-path="url(#clip21)"><text fill="#595959" font-family="Calibri,Calibri_MSFontService,sans-serif" font-weight="400" font-size="41" transform="matrix(1 0 0 1 1859.7 2029)">4.00</text></g><g clip-path="url(#clip22)"><text fill="#595959" font-family="Calibri,Calibri_MSFontService,sans-serif" font-weight="400" font-size="41" transform="matrix(1 0 0 1 2108.54 2029)">5.00</text></g><g clip-path="url(#clip23)"><text fill="#595959" font-family="Calibri,Calibri_MSFontService,sans-serif" font-weight="400" font-size="41" transform="matrix(1 0 0 1 2357.37 2029)">6.00</text></g><g clip-path="url(#clip24)"><text font-family="Arial,Arial_MSFontService,sans-serif" font-weight="400" font-size="41" transform="matrix(1 0 0 1 776.032 1940)">Urdu</text></g><g clip-path="url(#clip25)"><text font-family="Arial,Arial_MSFontService,sans-serif" font-weight="400" font-size="41" transform="matrix(1 0 0 1 716.402 1867)">Russian</text></g><g clip-path="url(#clip26)"><text font-family="Arial,Arial_MSFontService,sans-serif" font-weight="400" font-size="41" transform="matrix(1 0 0 1 677.398 1795)">Portugese</text></g><g clip-path="url(#clip27)"><text font-family="Arial,Arial_MSFontService,sans-serif" font-weight="400" font-size="41" transform="matrix(1 0 0 1 727.815 1722)">Bengali</text></g><g clip-path="url(#clip28)"><text font-family="Arial,Arial_MSFontService,sans-serif" font-weight="400" font-size="41" transform="matrix(1 0 0 1 597.212 1649)">Modern Arabic</text></g><g clip-path="url(#clip29)"><text font-family="Arial,Arial_MSFontService,sans-serif" font-weight="400" font-size="41" transform="matrix(1 0 0 1 737.05 1576)">French</text></g><g clip-path="url(#clip30)"><text font-family="Arial,Arial_MSFontService,sans-serif" font-weight="400" font-size="41" transform="matrix(1 0 0 1 716.356 1503)">Spanish</text></g><g clip-path="url(#clip31)"><text font-family="Arial,Arial_MSFontService,sans-serif" font-weight="400" font-size="41" transform="matrix(1 0 0 1 771.425 1430)">Hindi</text></g><g clip-path="url(#clip32)"><text font-family="Arial,Arial_MSFontService,sans-serif" font-weight="400" font-size="41" transform="matrix(1 0 0 1 530.684 1357)">Mandarin Chinese</text></g><g clip-path="url(#clip33)"><text font-family="Arial,Arial_MSFontService,sans-serif" font-weight="400" font-size="41" transform="matrix(1 0 0 1 730.129 1284)">English</text></g><g clip-path="url(#clip34)"><text font-family="Times New Roman,Times New Roman_MSFontService,sans-serif" font-weight="400" font-size="55" transform="matrix(1 0 0 1 837.103 1166)">Google Scholar Results : Number of Speakers (in Millions)</text></g><rect x="501.5" y="1080.5" width="1980" height="990" stroke="#D9D9D9" stroke-width="3.4375" stroke-linejoin="round" stroke-miterlimit="10" fill="none"/></g></svg>