<svg width="2006" height="1237" xmlns="http://www.w3.org/2000/svg" xmlns:xlink="http://www.w3.org/1999/xlink" overflow="hidden"><defs><clipPath id="clip0"><rect x="973" y="346" width="2006" height="1237"/></clipPath><clipPath id="clip1"><rect x="974" y="347" width="2002" height="1234"/></clipPath><clipPath id="clip2"><rect x="1347" y="517" width="1540" height="864"/></clipPath><clipPath id="clip3"><rect x="974" y="347" width="2002" height="1234"/></clipPath><clipPath id="clip4"><rect x="974" y="347" width="2002" height="1234"/></clipPath><clipPath id="clip5"><rect x="974" y="347" width="2002" height="1234"/></clipPath><clipPath id="clip6"><rect x="974" y="347" width="2002" height="1234"/></clipPath><clipPath id="clip7"><rect x="974" y="347" width="2002" height="1234"/></clipPath><clipPath id="clip8"><rect x="974" y="347" width="2002" height="1234"/></clipPath><clipPath id="clip9"><rect x="974" y="347" width="2002" height="1234"/></clipPath><clipPath id="clip10"><rect x="974" y="347" width="2002" height="1234"/></clipPath><clipPath id="clip11"><rect x="974" y="347" width="2002" height="1234"/></clipPath><clipPath id="clip12"><rect x="974" y="347" width="2002" height="1234"/></clipPath><clipPath id="clip13"><rect x="974" y="347" width="2002" height="1234"/></clipPath><clipPath id="clip14"><rect x="974" y="347" width="2002" height="1234"/></clipPath><clipPath id="clip15"><rect x="974" y="347" width="2002" height="1234"/></clipPath><clipPath id="clip16"><rect x="974" y="347" width="2002" height="1234"/></clipPath><clipPath id="clip17"><rect x="974" y="347" width="2002" height="1234"/></clipPath><clipPath id="clip18"><rect x="974" y="347" width="2002" height="1234"/></clipPath><clipPath id="clip19"><rect x="974" y="347" width="2002" height="1234"/></clipPath><clipPath id="clip20"><rect x="974" y="347" width="2002" height="1234"/></clipPath><clipPath id="clip21"><rect x="974" y="347" width="2002" height="1234"/></clipPath><clipPath id="clip22"><rect x="974" y="347" width="2002" height="1234"/></clipPath><clipPath id="clip23"><rect x="974" y="347" width="2002" height="1234"/></clipPath><clipPath id="clip24"><rect x="974" y="347" width="2002" height="1234"/></clipPath><clipPath id="clip25"><rect x="974" y="347" width="2002" height="1234"/></clipPath><clipPath id="clip26"><rect x="974" y="347" width="2002" height="1234"/></clipPath><clipPath id="clip27"><rect x="974" y="347" width="2002" height="1234"/></clipPath><clipPath id="clip28"><rect x="974" y="347" width="2002" height="1234"/></clipPath><clipPath id="clip29"><rect x="974" y="347" width="2002" height="1234"/></clipPath><clipPath id="clip30"><rect x="974" y="347" width="2002" height="1234"/></clipPath><clipPath id="clip31"><rect x="974" y="347" width="2002" height="1234"/></clipPath><clipPath id="clip32"><rect x="974" y="347" width="2002" height="1234"/></clipPath><clipPath id="clip33"><rect x="974" y="347" width="2002" height="1234"/></clipPath><clipPath id="clip34"><rect x="974" y="347" width="2002" height="1234"/></clipPath></defs><g clip-path="url(#clip0)" transform="translate(-973 -346)"><rect x="974" y="347" width="2003" height="1234" fill="#FFFFFF"/><g clip-path="url(#clip1)"><path d="M1539.55 517.5 1539.55 1377.5M1731.56 517.5 1731.56 1377.5M1923.56 517.5 1923.56 1377.5M2115.57 517.5 2115.57 1377.5M2307.58 517.5 2307.58 1377.5M2500.58 517.5 2500.58 1377.5M2692.59 517.5 2692.59 1377.5M2884.5 517.5 2884.5 1377.5" stroke="#D9D9D9" stroke-width="3.4375" stroke-linejoin="round" stroke-miterlimit="10" fill="none"/></g><g clip-path="url(#clip2)"><path d="M2746.09 1350.04 1347 1350.04 1347 1319.04 2746.09 1319.04ZM2440.08 1264.04 1347 1264.04 1347 1233.04 2440.08 1233.04ZM1933.06 1178.04 1347 1178.04 1347 1147.04 1933.06 1147.04ZM1884.06 1092.04 1347 1092.04 1347 1061.03 1884.06 1061.03ZM1645.05 1006.03 1347 1006.03 1347 975.032 1645.05 975.032ZM1611.05 920.03 1347 920.03 1347 889.029 1611.05 889.029ZM1610.05 834.027 1347 834.027 1347 803.026 1610.05 803.026ZM1601.05 748.025 1347 748.025 1347 717.024 1601.05 717.024ZM1592.05 662.022 1347 662.022 1347 631.021 1592.05 631.021ZM1570.05 575.019 1347 575.019 1347 545.018 1570.05 545.018Z" fill="#4472C4"/></g><g clip-path="url(#clip3)"><path d="M0 0 0.000360892 860" stroke="#D9D9D9" stroke-width="3.4375" stroke-linejoin="round" stroke-miterlimit="10" fill="none" fill-rule="evenodd" transform="matrix(1 0 0 -1 1347.5 1377.5)"/></g><g clip-path="url(#clip4)"><text fill="#404040" font-family="Calibri,Calibri_MSFontService,sans-serif" font-weight="400" font-size="41" transform="matrix(1 0 0 1 2773.56 1349)">1456</text></g><g clip-path="url(#clip5)"><text fill="#404040" font-family="Calibri,Calibri_MSFontService,sans-serif" font-weight="400" font-size="41" transform="matrix(1 0 0 1 2468.07 1262)">1138</text></g><g clip-path="url(#clip6)"><text fill="#404040" font-family="Calibri,Calibri_MSFontService,sans-serif" font-weight="400" font-size="41" transform="matrix(1 0 0 1 1960.86 1176)">610</text></g><g clip-path="url(#clip7)"><text fill="#404040" font-family="Calibri,Calibri_MSFontService,sans-serif" font-weight="400" font-size="41" transform="matrix(1 0 0 1 1911.86 1090)">559</text></g><g clip-path="url(#clip8)"><text fill="#404040" font-family="Calibri,Calibri_MSFontService,sans-serif" font-weight="400" font-size="41" transform="matrix(1 0 0 1 1672.66 1004)">310</text></g><g clip-path="url(#clip9)"><text fill="#404040" font-family="Calibri,Calibri_MSFontService,sans-serif" font-weight="400" font-size="41" transform="matrix(1 0 0 1 1638.08 918)">274</text></g><g clip-path="url(#clip10)"><text fill="#404040" font-family="Calibri,Calibri_MSFontService,sans-serif" font-weight="400" font-size="41" transform="matrix(1 0 0 1 1637.12 832)">273</text></g><g clip-path="url(#clip11)"><text fill="#404040" font-family="Calibri,Calibri_MSFontService,sans-serif" font-weight="400" font-size="41" transform="matrix(1 0 0 1 1628.47 746)">264</text></g><g clip-path="url(#clip12)"><text fill="#404040" font-family="Calibri,Calibri_MSFontService,sans-serif" font-weight="400" font-size="41" transform="matrix(1 0 0 1 1619.83 660)">255</text></g><g clip-path="url(#clip13)"><text fill="#404040" font-family="Calibri,Calibri_MSFontService,sans-serif" font-weight="400" font-size="41" transform="matrix(1 0 0 1 1597.73 574)">232</text></g><g clip-path="url(#clip14)"><text fill="#595959" font-family="Calibri,Calibri_MSFontService,sans-serif" font-weight="400" font-size="41" transform="matrix(1 0 0 1 1336.92 1443)">0</text></g><g clip-path="url(#clip15)"><text fill="#595959" font-family="Calibri,Calibri_MSFontService,sans-serif" font-weight="400" font-size="41" transform="matrix(1 0 0 1 1508.14 1443)">200</text></g><g clip-path="url(#clip16)"><text fill="#595959" font-family="Calibri,Calibri_MSFontService,sans-serif" font-weight="400" font-size="41" transform="matrix(1 0 0 1 1700.27 1443)">400</text></g><g clip-path="url(#clip17)"><text fill="#595959" font-family="Calibri,Calibri_MSFontService,sans-serif" font-weight="400" font-size="41" transform="matrix(1 0 0 1 1892.4 1443)">600</text></g><g clip-path="url(#clip18)"><text fill="#595959" font-family="Calibri,Calibri_MSFontService,sans-serif" font-weight="400" font-size="41" transform="matrix(1 0 0 1 2084.53 1443)">800</text></g><g clip-path="url(#clip19)"><text fill="#595959" font-family="Calibri,Calibri_MSFontService,sans-serif" font-weight="400" font-size="41" transform="matrix(1 0 0 1 2266.21 1443)">1000</text></g><g clip-path="url(#clip20)"><text fill="#595959" font-family="Calibri,Calibri_MSFontService,sans-serif" font-weight="400" font-size="41" transform="matrix(1 0 0 1 2458.33 1443)">1200</text></g><g clip-path="url(#clip21)"><text fill="#595959" font-family="Calibri,Calibri_MSFontService,sans-serif" font-weight="400" font-size="41" transform="matrix(1 0 0 1 2650.46 1443)">1400</text></g><g clip-path="url(#clip22)"><text fill="#595959" font-family="Calibri,Calibri_MSFontService,sans-serif" font-weight="400" font-size="41" transform="matrix(1 0 0 1 2842.59 1443)">1600</text></g><g clip-path="url(#clip23)"><text fill="#595959" font-family="Calibri,Calibri_MSFontService,sans-serif" font-weight="400" font-size="41" transform="matrix(1 0 0 1 1191.12 1346)">English</text></g><g clip-path="url(#clip24)"><text fill="#595959" font-family="Calibri,Calibri_MSFontService,sans-serif" font-weight="400" font-size="41" transform="matrix(1 0 0 1 1004.08 1260)">Mandarin Chinese</text></g><g clip-path="url(#clip25)"><text fill="#595959" font-family="Calibri,Calibri_MSFontService,sans-serif" font-weight="400" font-size="41" transform="matrix(1 0 0 1 1221.12 1174)">Hindi</text></g><g clip-path="url(#clip26)"><text fill="#595959" font-family="Calibri,Calibri_MSFontService,sans-serif" font-weight="400" font-size="41" transform="matrix(1 0 0 1 1179.76 1088)">Spanish</text></g><g clip-path="url(#clip27)"><text fill="#595959" font-family="Calibri,Calibri_MSFontService,sans-serif" font-weight="400" font-size="41" transform="matrix(1 0 0 1 1194.42 1002)">French</text></g><g clip-path="url(#clip28)"><text fill="#595959" font-family="Calibri,Calibri_MSFontService,sans-serif" font-weight="400" font-size="41" transform="matrix(1 0 0 1 1057.86 916)">Modern Arabic</text></g><g clip-path="url(#clip29)"><text fill="#595959" font-family="Calibri,Calibri_MSFontService,sans-serif" font-weight="400" font-size="41" transform="matrix(1 0 0 1 1186.36 830)">Bengali</text></g><g clip-path="url(#clip30)"><text fill="#595959" font-family="Calibri,Calibri_MSFontService,sans-serif" font-weight="400" font-size="41" transform="matrix(1 0 0 1 1139.54 744)">Portugese</text></g><g clip-path="url(#clip31)"><text fill="#595959" font-family="Calibri,Calibri_MSFontService,sans-serif" font-weight="400" font-size="41" transform="matrix(1 0 0 1 1181.87 658)">Russian</text></g><g clip-path="url(#clip32)"><text fill="#595959" font-family="Calibri,Calibri_MSFontService,sans-serif" font-weight="400" font-size="41" transform="matrix(1 0 0 1 1224.88 572)">Urdu</text></g><g clip-path="url(#clip33)"><text fill="#595959" font-family="Calibri,Calibri_MSFontService,sans-serif" font-weight="400" font-size="46" transform="matrix(1 0 0 1 1930.78 1512)">Speakers in Millions</text></g><g clip-path="url(#clip34)"><text fill="#595959" font-family="Calibri,Calibri_MSFontService,sans-serif" font-weight="400" font-size="64" transform="matrix(1 0 0 1 1402.2 443)">Native and Non Native Speakers (Wikipedia)</text></g><rect x="974.5" y="347.5" width="2003" height="1234" stroke="#D9D9D9" stroke-width="3.4375" stroke-linejoin="round" stroke-miterlimit="10" fill="none"/></g></svg>